<svg id="Ebene_1" data-name="Ebene 1" xmlns="http://www.w3.org/2000/svg" viewBox="0 0 1558 300"><path d="M1496.43,250.21V219.87h-96.12V168.32h55.57V138h-55.57V92.6h90.21V62.26H1368.08v188Zm-276-157.34H1272q15,0,21.48,7.65t6.44,18.93q0,11.55-6.71,19.06T1272,146h-51.55Zm0,157.34V176.64h39.2l36.25,73.57h36.24l-37.59-77.06q18.8-5.64,28.73-20.94a59.13,59.13,0,0,0,9.94-32.76q0-25-14.63-41.08t-47.13-16.11h-83.23v188Zm-62.16,0V219.87h-96.12V168.32h55.58V138h-55.58V92.6h90.22V62.26H1029.94v188Zm-171.16,0v-188h-32v76H873v-76H840.78v188H873V168.59h82.16v81.62Zm-365.53-12q18.66-15.16,18.66-41.48a53.25,53.25,0,0,0-2.15-15.44A61,61,0,0,0,633,169a39.26,39.26,0,0,0-8.46-10.07,90.75,90.75,0,0,0-9.8-7.65A95.74,95.74,0,0,0,602.93,145q-7.51-3.5-11.68-5T579,135.56q-12.35-4-18.66-6.58a38.78,38.78,0,0,1-11.81-7.65q-5.5-5.1-5.5-11.55,0-9.66,7.11-14.9t19.73-5.23q24.71,0,33.3,19.33l29-9.67a54,54,0,0,0-21-29.13Q595.68,59,572.05,59,543.6,59,527,73.54t-16.65,36a47,47,0,0,0,3.62,18.66,47.5,47.5,0,0,0,8.33,13.56q4.69,5.1,13.69,10.06a114.85,114.85,0,0,0,14.77,7.12q5.76,2.15,16.51,5.91,8.32,2.68,12.62,4.43t10.47,4.7a36.28,36.28,0,0,1,9.26,5.9,29.86,29.86,0,0,1,5.51,7.39,19.6,19.6,0,0,1,2.42,9.53q0,12.61-8.73,19.33t-23.5,6.71A42.08,42.08,0,0,1,550,214.9a51.11,51.11,0,0,1-16.92-21.08l-29.8,11q7.79,22.56,26.44,35.58t44.44,13q28.72,0,47.39-15.17M472,62.26H439.79v188H472Zm-75.47,0h-32v116.8a128.12,128.12,0,0,0,.81,14.23,151,151,0,0,0-7.79-14.23l-76-116.8H250.48v188h32V131.53a114.35,114.35,0,0,0-.8-14,117.21,117.21,0,0,0,7.78,14l77.87,118.68h29.26ZM163.84,249.4a68.88,68.88,0,0,0,23.09-12.48q10.33-8.46,16.11-23.36t5.77-35V62.26H176.59V178.52q0,24.16-10.61,34.1t-30.47,9.93q-19.87,0-30.47-9.8T94.43,178.52V62.26H62.21V178.52q0,20.41,5.91,35.31t16.37,23.36a68.62,68.62,0,0,0,23.1,12.35,94.59,94.59,0,0,0,27.92,3.89,93.68,93.68,0,0,0,28.33-4"/><path d="M814.76,120.53q0-24.43-15.3-41.35t-47.8-16.92H673.53v80.93l32.22-19.52V92.87h47.52q15,0,21.62,8.46a30.49,30.49,0,0,1,6.58,19.2,29.52,29.52,0,0,1-7,19.6q-7,8.33-21.21,8.32H705.75l-22.39,4.48-9.83,2.23v95.05h32.22V179.06h45.91q31.15,0,47.12-17.72t16-40.81"/></svg>